<?xml version="1.0" encoding="UTF-8"?><svg id="Layer_1" xmlns="http://www.w3.org/2000/svg" viewBox="0 0 576 576"><defs><style>.cls-1{stroke: #ebdbb2; fill:#1d2021;}.cls-2{stroke-width:0px;}.cls-2{fill:#ebdbb2;}</style></defs><path class="cls-1" d="M482.91,399.59v-223.18c0-.58-.31-1.12-.81-1.41l-193.28-111.59c-.5-.29-1.12-.29-1.63,0l-193.28,111.59c-.5.29-.81.83-.81,1.41v223.18c0,.58.31,1.12.81,1.41l193.28,111.59c.5.29,1.12.29,1.63,0l193.28-111.59c.5-.29.81-.83.81-1.41Z"/><path class="cls-2" d="M442.85,233.3v-40.09s-54.01,31.79-70.28,41.38c-29.93-17.61-82.36-48.5-112.77-66.42l66.56-38.25-34.24-20.17c-48.52,27.86-110.89,63.7-158.98,91.34v175.07c9.67,5.69,21.67,12.76,34.56,20.36v-71.41l30.26,17.82,44.08,97.39c3.53,2.07,39.81,23.43,44.04,25.91,47.37-27.9,109.24-64.33,156.77-92.34v-111.49c-21.65,12.74-77.56,45.67-99.88,58.82v-29.09c29.77-17.53,70.09-41.27,99.88-58.83ZM233.12,323.55c-9.72-5.71-55.47-32.68-65.41-38.52v-29.11c18.1,10.67,47.42,27.93,65.41,38.54v29.09ZM408.29,322.84v31.32c-33.64,19.79-89.07,52.46-122.23,71.98l-17.47-10.29h-.02c-2.57-5.74-15.23-33.93-18.05-40.2l1.49-.87,15.65,9.22v-109.29c-21.28-12.53-73.61-43.36-95.45-56.21l53.09-30.5c34.19,20.12,79,46.49,113.19,66.66l-30.08,17.71v109.29c22.61-13.31,76.59-45.1,99.86-58.82Z"/></svg>
