<?xml version="1.0" encoding="UTF-8" standalone="no"?>
<!DOCTYPE svg PUBLIC "-//W3C//DTD SVG 1.1//EN"
 "http://www.w3.org/Graphics/SVG/1.1/DTD/svg11.dtd">
<!-- Generated by graphviz version 2.40.1 (20161225.0304)
 -->
<!-- Title: G Pages: 1 -->
<svg width="760pt" height="260pt"
 viewBox="0.00 0.00 760.33 260.00" xmlns="http://www.w3.org/2000/svg" xmlns:xlink="http://www.w3.org/1999/xlink">
<g id="graph0" class="graph" transform="scale(1 1) rotate(0) translate(4 256)">
<title>G</title>
<polygon fill="#ffffff" stroke="transparent" points="-4,4 -4,-256 756.3341,-256 756.3341,4 -4,4"/>
<!-- is_it_dns -->
<g id="node1" class="node">
<title>is_it_dns</title>
<polygon fill="#282828" stroke="#282828" points="668.6908,-252 584.904,-234 668.6908,-216 752.4777,-234 668.6908,-252"/>
<text text-anchor="middle" x="668.6908" y="-230.3" font-family="Times,serif" font-size="14.00" fill="#fdf4c1">Is it DNS?</text>
</g>
<!-- check_bad_records -->
<g id="node2" class="node">
<title>check_bad_records</title>
<polygon fill="#282828" stroke="#282828" points="615.1908,-180 394.1908,-180 394.1908,-144 615.1908,-144 615.1908,-180"/>
<text text-anchor="middle" x="504.6908" y="-158.3" font-family="Times,serif" font-size="14.00" fill="#fdf4c1">Check DNS for Bad Records</text>
</g>
<!-- is_it_dns&#45;&gt;check_bad_records -->
<g id="edge1" class="edge">
<title>is_it_dns&#45;&gt;check_bad_records</title>
<path fill="none" stroke="#282828" d="M600.1192,-230.5273C600.1192,-230.5273 600.1192,-190.2123 600.1192,-190.2123"/>
<polygon fill="#282828" stroke="#282828" points="603.6193,-190.2122 600.1192,-180.2123 596.6193,-190.2123 603.6193,-190.2122"/>
<text text-anchor="middle" x="587.6192" y="-199.1698" font-family="Times,serif" font-size="14.00" fill="#282828">Yes</text>
</g>
<!-- is_it_resolved -->
<g id="node3" class="node">
<title>is_it_resolved</title>
<polygon fill="#282828" stroke="#282828" points="162.6908,-108 -.1911,-90 162.6908,-72 325.5727,-90 162.6908,-108"/>
<text text-anchor="middle" x="162.6908" y="-86.3" font-family="Times,serif" font-size="14.00" fill="#fdf4c1">Is the Issue Resolved?</text>
</g>
<!-- check_bad_records&#45;&gt;is_it_resolved -->
<g id="edge2" class="edge">
<title>check_bad_records&#45;&gt;is_it_resolved</title>
<path fill="none" stroke="#282828" d="M404.6908,-143.8314C404.6908,-122.502 404.6908,-90 404.6908,-90 404.6908,-90 335.451,-90 335.451,-90"/>
<polygon fill="#282828" stroke="#282828" points="335.451,-86.5001 325.451,-90 335.4509,-93.5001 335.451,-86.5001"/>
</g>
<!-- you_missed_something -->
<g id="node4" class="node">
<title>you_missed_something</title>
<polygon fill="#282828" stroke="#282828" points="670.1908,-36 415.1908,-36 415.1908,0 670.1908,0 670.1908,-36"/>
<text text-anchor="middle" x="542.6908" y="-14.3" font-family="Times,serif" font-size="14.00" fill="#fdf4c1">You Obviously Missed Something</text>
</g>
<!-- is_it_resolved&#45;&gt;you_missed_something -->
<g id="edge4" class="edge">
<title>is_it_resolved&#45;&gt;you_missed_something</title>
<path fill="none" stroke="#282828" d="M277.5363,-84.3503C277.5363,-67.377 277.5363,-18 277.5363,-18 277.5363,-18 405.1618,-18 405.1618,-18"/>
<polygon fill="#282828" stroke="#282828" points="405.1618,-21.5001 415.1618,-18 405.1618,-14.5001 405.1618,-21.5001"/>
<text text-anchor="middle" x="297.1739" y="-21.8" font-family="Times,serif" font-size="14.00" fill="#282828">No</text>
</g>
<!-- its_always_dns -->
<g id="node5" class="node">
<title>its_always_dns</title>
<polygon fill="#282828" stroke="#282828" points="229.6908,-36 95.6908,-36 95.6908,0 229.6908,0 229.6908,-36"/>
<text text-anchor="middle" x="162.6908" y="-14.3" font-family="Times,serif" font-size="14.00" fill="#fdf4c1">It&#39;s Always DNS</text>
</g>
<!-- is_it_resolved&#45;&gt;its_always_dns -->
<g id="edge3" class="edge">
<title>is_it_resolved&#45;&gt;its_always_dns</title>
<path fill="none" stroke="#282828" d="M162.6908,-71.8314C162.6908,-71.8314 162.6908,-46.4133 162.6908,-46.4133"/>
<polygon fill="#282828" stroke="#282828" points="166.1909,-46.4132 162.6908,-36.4133 159.1909,-46.4133 166.1909,-46.4132"/>
<text text-anchor="middle" x="150.1908" y="-47.9223" font-family="Times,serif" font-size="14.00" fill="#282828">Yes</text>
</g>
<!-- you_missed_something&#45;&gt;is_it_dns -->
<g id="edge6" class="edge">
<title>you_missed_something&#45;&gt;is_it_dns</title>
<path fill="none" stroke="#282828" d="M642.6908,-36.0445C642.6908,-36.0445 642.6908,-211.5083 642.6908,-211.5083"/>
<polygon fill="#282828" stroke="#282828" points="639.1909,-211.5082 642.6908,-221.5083 646.1909,-211.5083 639.1909,-211.5082"/>
<text text-anchor="middle" x="631.6908" y="-127.5764" font-family="Times,serif" font-size="14.00" fill="#282828">No</text>
</g>
<!-- you_missed_something&#45;&gt;check_bad_records -->
<g id="edge5" class="edge">
<title>you_missed_something&#45;&gt;check_bad_records</title>
<path fill="none" stroke="#282828" d="M515.1908,-36.2377C515.1908,-36.2377 515.1908,-133.9104 515.1908,-133.9104"/>
<polygon fill="#282828" stroke="#282828" points="511.6909,-133.9103 515.1908,-143.9104 518.6909,-133.9104 511.6909,-133.9103"/>
</g>
</g>
</svg>
