<?xml version="1.0" encoding="UTF-8"?><svg id="Layer_1" xmlns="http://www.w3.org/2000/svg" viewBox="0 0 576 576"><defs><style>.cls-1{fill:#eddcb2;stroke-width:0px;}</style></defs><path class="cls-1" d="M486.44,217.9v-51.37s-69.22,40.74-90.07,53.03c-38.36-22.57-105.55-62.15-144.51-85.11l85.3-49.01-43.87-25.84c-62.17,35.71-142.1,81.63-203.74,117.05v224.36c12.39,7.29,27.77,16.35,44.29,26.09v-91.52l38.77,22.84,56.49,124.8c4.52,2.65,8.81,5.18,12.79,7.52,5.37,3.15,13.57,8,21.8,12.83,8.21,4.83,16.43,9.68,21.84,12.85,60.7-35.75,139.99-82.44,200.9-118.33v-142.87c-27.75,16.33-99.39,58.52-127.99,75.37v-37.28c38.15-22.46,89.82-52.89,127.99-75.39ZM217.67,333.56c-12.46-7.32-71.08-41.88-83.83-49.36v-37.3c23.19,13.68,60.76,35.79,83.83,49.39v37.28ZM442.16,332.65v40.14c-43.11,25.37-114.15,67.23-156.63,92.24l-22.38-13.18h-.02c-3.3-7.36-19.52-43.48-23.13-51.52l1.91-1.12,20.06,11.81v-140.05c-27.27-16.06-94.34-55.56-122.31-72.04l68.04-39.09c43.81,25.78,101.24,59.58,145.05,85.42l-38.55,22.69v140.05c28.97-17.06,98.15-57.8,127.97-75.37Z"/></svg>